<svg width="443" height="464" viewBox="0 0 443 464" fill="none" xmlns="http://www.w3.org/2000/svg">
<path d="M274.452 230.47H134.311C131.603 230.47 129.457 228.324 129.457 225.616V17.4731C129.457 14.7653 131.603 12.5684 134.311 12.5684H274.452C277.16 12.5684 279.357 14.7653 279.357 17.4731V225.616C279.357 228.324 277.16 230.47 274.452 230.47Z" fill="white"/>
<path fill-rule="evenodd" clip-rule="evenodd" d="M274.349 231.032H134.412C131.398 231.032 128.945 228.528 128.945 225.514V17.5243C128.945 14.51 131.398 12.0576 134.412 12.0576H274.349C277.414 12.0576 279.867 14.51 279.867 17.5243V225.514C279.867 228.528 277.414 231.032 274.349 231.032ZM134.412 13.0794C131.96 13.0794 129.967 15.072 129.967 17.5243V225.514C129.967 227.966 131.96 229.959 134.412 229.959H274.349C276.801 229.959 278.794 227.966 278.794 225.514V17.5243C278.794 15.072 276.801 13.0794 274.349 13.0794H134.412Z" fill="#E0E0E0"/>
<path d="M268.728 211.822H144.016V206.713H268.728V211.822Z" fill="#E0E0E0"/>
<path d="M268.728 219.434H144.016V214.325H268.728V219.434Z" fill="#E0E0E0"/>
<path d="M268.728 189.852H144.016V99.5752H268.728V189.852Z" fill="#F5F5F5"/>
<path d="M268.113 115.21C268.113 115.363 240.218 115.516 205.885 115.516C171.501 115.516 143.605 115.363 143.605 115.21C143.605 115.107 171.501 114.954 205.885 114.954C240.218 114.954 268.113 115.107 268.113 115.21Z" fill="#263238"/>
<path d="M160.408 189.852C160.306 189.852 160.152 169.773 160.152 144.994C160.152 120.215 160.306 100.137 160.408 100.137C160.561 100.137 160.714 120.215 160.714 144.994C160.714 169.773 160.561 189.852 160.408 189.852Z" fill="#263238"/>
<path d="M216.517 190.874C216.415 190.874 216.262 170.591 216.262 145.505C216.262 120.471 216.415 100.137 216.517 100.137C216.67 100.137 216.824 120.471 216.824 145.505C216.824 170.591 216.67 190.874 216.517 190.874Z" fill="#263238"/>
<path d="M244.564 190.874C244.462 190.874 244.309 170.591 244.309 145.505C244.309 120.471 244.462 100.137 244.564 100.137C244.717 100.137 244.871 120.471 244.871 145.505C244.871 170.591 244.717 190.874 244.564 190.874Z" fill="#263238"/>
<path d="M155.665 110.816H148.359V105.451H155.665V110.816Z" fill="#E0E0E0"/>
<path d="M155.665 129.821H148.359V124.508H155.665V129.821Z" fill="#E0E0E0"/>
<path d="M155.665 141.878H148.359V136.564H155.665V141.878Z" fill="#E0E0E0"/>
<path d="M155.665 152.454H148.359V147.141H155.665V152.454Z" fill="#E0E0E0"/>
<path d="M238.175 110.816H222.746V105.451H238.175V110.816Z" fill="#E0E0E0"/>
<path d="M235.826 125.631H225.199V120.267H235.826V125.631Z" fill="#E0E0E0"/>
<path d="M235.826 141.776H225.199V136.463H235.826V141.776Z" fill="#E0E0E0"/>
<path d="M262.752 141.776H252.125V136.463H262.752V141.776Z" fill="#E0E0E0"/>
<path d="M235.826 152.556H225.199V147.191H235.826V152.556Z" fill="#E0E0E0"/>
<path d="M262.65 152.045H252.023V146.731H262.65V152.045Z" fill="#E0E0E0"/>
<path d="M262.65 125.937H252.023V120.624H262.65V125.937Z" fill="#E0E0E0"/>
<path d="M262.649 110.816H250.336V105.451H262.649V110.816Z" fill="#E0E0E0"/>
<path d="M207.775 110.816H167.465V105.451H207.775V110.816Z" fill="#E0E0E0"/>
<path d="M191.426 128.697H167.465V123.384H191.426V128.697Z" fill="#E0E0E0"/>
<path d="M207.775 141.418H167.465V136.054H207.775V141.418Z" fill="#E0E0E0"/>
<path d="M188.872 152.045H167.465V146.731H188.872V152.045Z" fill="#E0E0E0"/>
<path d="M268.728 202.114H244.562V189.853H268.728V202.114Z" fill="#E0E0E0"/>
<path d="M262.754 40.5668H209.109V35.5088H262.754V40.5668Z" fill="#E0E0E0"/>
<path d="M160.263 56.4046H147.133V51.3467H160.263V56.4046Z" fill="#E0E0E0"/>
<path d="M181.774 64.9369H146.777V59.8789H181.774V64.9369Z" fill="#E0E0E0"/>
<path d="M251.156 56.4046H264.235V51.3467H251.156V56.4046Z" fill="#E0E0E0"/>
<path d="M229.645 64.9369H264.642V59.8789H229.645V64.9369Z" fill="#E0E0E0"/>
<path d="M181.774 80.6725H146.777V75.5635H181.774V80.6725Z" fill="#E0E0E0"/>
<path d="M236.135 89.5104H146.777V84.4014H236.135V89.5104Z" fill="#E0E0E0"/>
<path d="M148 32.9023H150.35V41.3323H148V32.9023Z" fill="#E0E0E0"/>
<path d="M160.056 32.9023V41.3323H158.115L154.385 36.8363V41.3323H152.086V32.9023H154.027L157.757 37.3983V32.9023H160.056Z" fill="#E0E0E0"/>
<path d="M170.277 32.9023L166.649 41.3323H164.299L160.723 32.9023H163.277L165.576 38.369L167.875 32.9023H170.277Z" fill="#E0E0E0"/>
<path fill-rule="evenodd" clip-rule="evenodd" d="M170.227 37.1428C170.227 34.5883 172.168 32.749 174.876 32.749C177.584 32.749 179.576 34.5883 179.576 37.1428C179.576 39.6462 177.584 41.4855 174.876 41.4855C172.168 41.4855 170.227 39.6462 170.227 37.1428ZM177.175 37.1428C177.175 35.6612 176.153 34.7416 174.876 34.7416C173.599 34.7416 172.628 35.6612 172.628 37.1428C172.628 38.5733 173.599 39.5441 174.876 39.5441C176.153 39.5441 177.175 38.5733 177.175 37.1428Z" fill="#E0E0E0"/>
<path d="M180.797 32.9023H183.198V41.3323H180.797V32.9023Z" fill="#E0E0E0"/>
<path d="M184.426 37.1428C184.426 34.5883 186.418 32.749 189.075 32.749C190.608 32.749 191.885 33.311 192.702 34.3328L191.17 35.7123C190.659 35.0481 189.995 34.7416 189.177 34.7416C187.798 34.7416 186.827 35.6612 186.827 37.1428C186.827 38.5733 187.798 39.5441 189.177 39.5441C189.995 39.5441 190.659 39.1864 191.17 38.5223L192.702 39.9017C191.885 40.9235 190.608 41.4855 189.075 41.4855C186.418 41.4855 184.426 39.6973 184.426 37.1428Z" fill="#E0E0E0"/>
<path d="M200.471 39.493V41.3323H193.727V32.9023H200.317V34.7416H196.077V36.1721H199.806V37.9603H196.077V39.493H200.471Z" fill="#E0E0E0"/>
<path d="M139.524 20.385C139.524 21.6623 138.502 22.6841 137.225 22.6841C135.998 22.6841 134.977 21.6623 134.977 20.385C134.977 19.1077 135.998 18.0859 137.225 18.0859C138.502 18.0859 139.524 19.1077 139.524 20.385Z" fill="#E0E0E0"/>
<path d="M145.395 20.385C145.395 21.6623 144.373 22.6841 143.096 22.6841C141.869 22.6841 140.848 21.6623 140.848 20.385C140.848 19.1077 141.869 18.0859 143.096 18.0859C144.373 18.0859 145.395 19.1077 145.395 20.385Z" fill="#E0E0E0"/>
<path d="M151.27 20.385C151.27 21.6623 150.248 22.6841 149.022 22.6841C147.744 22.6841 146.723 21.6623 146.723 20.385C146.723 19.1077 147.744 18.0859 149.022 18.0859C150.248 18.0859 151.27 19.1077 151.27 20.385Z" fill="#E0E0E0"/>
<path d="M426.956 383.128H286.815C284.107 383.128 281.91 380.982 281.91 378.274V170.131C281.91 167.423 284.107 165.227 286.815 165.227H426.956C429.664 165.227 431.81 167.423 431.81 170.131V378.274C431.81 380.982 429.664 383.128 426.956 383.128Z" fill="white"/>
<path fill-rule="evenodd" clip-rule="evenodd" d="M426.853 383.639H286.865C283.851 383.639 281.398 381.186 281.398 378.172V170.183C281.398 167.168 283.851 164.716 286.865 164.716H426.853C429.868 164.716 432.32 167.168 432.32 170.183V378.172C432.32 381.186 429.868 383.639 426.853 383.639ZM286.865 165.738C284.464 165.738 282.471 167.73 282.471 170.183V378.172C282.471 380.624 284.464 382.617 286.865 382.617H426.853C429.306 382.617 431.298 380.624 431.298 378.172V170.183C431.298 167.73 429.306 165.738 426.853 165.738H286.865Z" fill="#E0E0E0"/>
<path d="M421.232 364.48H296.52V359.371H421.232V364.48Z" fill="#E0E0E0"/>
<path d="M421.232 372.092H296.52V366.983H421.232V372.092Z" fill="#E0E0E0"/>
<path d="M421.232 342.511H296.52V252.234H421.232V342.511Z" fill="#F5F5F5"/>
<path d="M420.621 267.868C420.621 268.021 392.726 268.174 358.342 268.174C324.009 268.174 296.113 268.021 296.113 267.868C296.113 267.714 324.009 267.612 358.342 267.612C392.726 267.612 420.621 267.714 420.621 267.868Z" fill="#E0E0E0"/>
<path d="M312.916 342.511C312.762 342.511 312.66 322.432 312.66 297.653C312.66 272.874 312.762 252.796 312.916 252.796C313.069 252.796 313.222 272.874 313.222 297.653C313.222 322.432 313.069 342.511 312.916 342.511Z" fill="#E0E0E0"/>
<path d="M369.017 343.533C368.864 343.533 368.762 323.199 368.762 298.164C368.762 273.13 368.864 252.796 369.017 252.796C369.17 252.796 369.324 273.13 369.324 298.164C369.324 323.199 369.17 343.533 369.017 343.533Z" fill="#E0E0E0"/>
<path d="M397.068 343.533C396.915 343.533 396.812 323.199 396.812 298.164C396.812 273.13 396.915 252.796 397.068 252.796C397.221 252.796 397.374 273.13 397.374 298.164C397.374 323.199 397.221 343.533 397.068 343.533Z" fill="#E0E0E0"/>
<path d="M308.165 263.474H300.859V258.109H308.165V263.474Z" fill="#E0E0E0"/>
<path d="M308.165 282.48H300.859V277.167H308.165V282.48Z" fill="#E0E0E0"/>
<path d="M308.165 294.537H300.859V289.224H308.165V294.537Z" fill="#E0E0E0"/>
<path d="M308.165 305.113H300.859V299.8H308.165V305.113Z" fill="#E0E0E0"/>
<path d="M390.683 263.475H375.254V258.11H390.683V263.475Z" fill="#E0E0E0"/>
<path d="M388.334 278.239H377.707V272.926H388.334V278.239Z" fill="#E0E0E0"/>
<path d="M388.334 294.435H377.707V289.122H388.334V294.435Z" fill="#E0E0E0"/>
<path d="M415.26 294.435H404.582V289.122H415.26V294.435Z" fill="#E0E0E0"/>
<path d="M388.334 305.215H377.707V299.851H388.334V305.215Z" fill="#E0E0E0"/>
<path d="M415.154 304.704H404.527V299.34H415.154V304.704Z" fill="#E0E0E0"/>
<path d="M415.154 278.598H404.527V273.284H415.154V278.598Z" fill="#E0E0E0"/>
<path d="M415.153 263.475H402.84V258.11H415.153V263.475Z" fill="#E0E0E0"/>
<path d="M360.279 263.474H319.969V258.109H360.279V263.474Z" fill="#E0E0E0"/>
<path d="M343.93 281.356H319.969V276.043H343.93V281.356Z" fill="#E0E0E0"/>
<path d="M360.279 294.077H319.969V288.713H360.279V294.077Z" fill="#E0E0E0"/>
<path d="M341.376 304.704H319.969V299.34H341.376V304.704Z" fill="#E0E0E0"/>
<path d="M421.236 354.773H397.07V342.512H421.236V354.773Z" fill="#E0E0E0"/>
<path d="M415.254 193.225H361.609V188.167H415.254V193.225Z" fill="#E0E0E0"/>
<path d="M312.771 209.063H299.641V204.005H312.771V209.063Z" fill="#E0E0E0"/>
<path d="M334.274 217.594H299.277V212.485H334.274V217.594Z" fill="#E0E0E0"/>
<path d="M403.609 209.063H416.74V204.005H403.609V209.063Z" fill="#E0E0E0"/>
<path d="M382.148 217.594H417.145V212.485H382.148V217.594Z" fill="#E0E0E0"/>
<path d="M334.274 233.331H299.277V228.222H334.274V233.331Z" fill="#E0E0E0"/>
<path d="M388.584 242.17H299.277V237.061H388.584V242.17Z" fill="#E0E0E0"/>
<path d="M300.508 185.562H302.858V193.991H300.508V185.562Z" fill="#E0E0E0"/>
<path d="M312.564 185.562V193.991H310.623L306.893 189.495V193.991H304.543V185.562H306.536L310.214 190.057V185.562H312.564Z" fill="#E0E0E0"/>
<path d="M322.733 185.562L319.157 193.991H316.807L313.23 185.562H315.785L318.084 191.028L320.383 185.562H322.733Z" fill="#E0E0E0"/>
<path fill-rule="evenodd" clip-rule="evenodd" d="M322.68 189.802C322.68 187.247 324.672 185.408 327.38 185.408C330.088 185.408 332.029 187.247 332.029 189.802C332.029 192.305 330.088 194.145 327.38 194.145C324.672 194.145 322.68 192.305 322.68 189.802ZM329.628 189.802C329.628 188.32 328.657 187.401 327.38 187.401C326.103 187.401 325.081 188.32 325.081 189.802C325.081 191.233 326.103 192.203 327.38 192.203C328.657 192.203 329.628 191.233 329.628 189.802Z" fill="#E0E0E0"/>
<path d="M333.305 185.562H335.655V193.991H333.305V185.562Z" fill="#E0E0E0"/>
<path d="M336.934 189.802C336.934 187.196 338.875 185.408 341.583 185.408C343.116 185.408 344.342 185.97 345.159 186.992L343.678 188.371C343.116 187.707 342.502 187.401 341.685 187.401C340.306 187.401 339.335 188.32 339.335 189.802C339.335 191.233 340.306 192.203 341.685 192.203C342.502 192.203 343.116 191.846 343.678 191.181L345.159 192.561C344.342 193.583 343.116 194.145 341.583 194.145C338.875 194.145 336.934 192.357 336.934 189.802Z" fill="#E0E0E0"/>
<path d="M352.978 192.152V193.991H346.234V185.562H352.825V187.401H348.585V188.831H352.314V190.619H348.585V192.152H352.978Z" fill="#E0E0E0"/>
<path d="M292.028 173.043C292.028 174.32 291.006 175.342 289.729 175.342C288.451 175.342 287.43 174.32 287.43 173.043C287.43 171.766 288.451 170.744 289.729 170.744C291.006 170.744 292.028 171.766 292.028 173.043Z" fill="#E0E0E0"/>
<path d="M297.899 173.044C297.899 174.321 296.877 175.343 295.6 175.343C294.374 175.343 293.301 174.321 293.301 173.044C293.301 171.767 294.374 170.745 295.6 170.745C296.877 170.745 297.899 171.767 297.899 173.044Z" fill="#E0E0E0"/>
<path d="M303.778 173.043C303.778 174.32 302.756 175.342 301.478 175.342C300.252 175.342 299.23 174.32 299.23 173.043C299.23 171.766 300.252 170.744 301.478 170.744C302.756 170.744 303.778 171.766 303.778 173.043Z" fill="#E0E0E0"/>
<path d="M338.78 10.8823C349.152 2.35017 364.632 2.40126 375.003 10.9334C375.923 11.6997 377.2 11.853 378.12 10.9334C378.886 10.167 379.04 8.58321 378.12 7.81686C372.142 2.91216 364.683 0.0510906 356.917 0C349.152 0 341.641 2.86107 335.664 7.76576C334.744 8.53212 334.846 10.1159 335.664 10.8823C336.583 11.8019 337.861 11.6486 338.78 10.8823Z" fill="#E0E0E0"/>
<path d="M346.035 18.5967C352.268 13.5387 361.516 13.5898 367.698 18.6478C368.617 19.4141 369.946 19.5674 370.814 18.6478C371.632 17.8814 371.785 16.2976 370.814 15.5312C366.88 12.3125 362.027 10.3711 356.866 10.3711C351.757 10.3711 346.904 12.2614 342.919 15.4801C341.999 16.2465 342.152 17.8303 342.919 18.5967C343.838 19.5163 345.116 19.363 346.035 18.5967Z" fill="#E0E0E0"/>
<path d="M362.332 25.0855C362.332 28.0999 359.879 30.5522 356.865 30.5522C353.85 30.5522 351.449 28.0999 351.449 25.0855C351.449 22.1223 353.85 19.6699 356.865 19.6699C359.879 19.6699 362.332 22.1223 362.332 25.0855Z" fill="#E0E0E0"/>
<path d="M442.751 451.896C442.751 452.049 343.635 452.152 221.375 452.152C99.1157 452.152 0 452.049 0 451.896C0 451.743 99.1157 451.641 221.375 451.641C343.635 451.641 442.751 451.743 442.751 451.896Z" fill="#263238"/>
<path d="M189.593 266.641H49.4513C46.7946 266.641 44.5977 264.496 44.5977 261.788V53.6449C44.5977 50.9371 46.7946 48.7402 49.4513 48.7402H189.593C192.3 48.7402 194.497 50.9371 194.497 53.6449V261.788C194.497 264.496 192.3 266.641 189.593 266.641Z" fill="white"/>
<path fill-rule="evenodd" clip-rule="evenodd" d="M189.541 267.204H49.5526C46.5383 267.204 44.0859 264.7 44.0859 261.686V53.6962C44.0859 50.6818 46.5383 48.2295 49.5526 48.2295H189.541C192.555 48.2295 195.007 50.6818 195.007 53.6962V261.686C195.007 264.7 192.555 267.204 189.541 267.204ZM49.5526 49.2513C47.1003 49.2513 45.1077 51.2438 45.1077 53.6962V261.686C45.1077 264.138 47.1003 266.131 49.5526 266.131H189.541C191.993 266.131 193.986 264.138 193.986 261.686V53.6962C193.986 51.2438 191.993 49.2513 189.541 49.2513H49.5526Z" fill="#263238"/>
<path d="M183.919 247.994H59.1562V242.885H183.919V247.994Z" fill="#E0E0E0"/>
<path d="M183.919 255.606H59.1562V250.497H183.919V255.606Z" fill="#E0E0E0"/>
<path d="M183.919 226.025H59.1562V135.748H183.919V226.025Z" fill="#F5F5F5"/>
<path d="M183.25 151.381C183.25 151.535 155.405 151.688 121.021 151.688C86.6373 151.688 58.793 151.535 58.793 151.381C58.793 151.279 86.6373 151.126 121.021 151.126C155.405 151.126 183.25 151.279 183.25 151.381Z" fill="#263238"/>
<path d="M75.6073 226.025C75.454 226.025 75.3008 205.946 75.3008 181.167C75.3008 156.388 75.454 136.31 75.6073 136.31C75.7606 136.31 75.8628 156.388 75.8628 181.167C75.8628 205.946 75.7606 226.025 75.6073 226.025Z" fill="#263238"/>
<path d="M131.705 227.046C131.552 227.046 131.398 206.763 131.398 181.678C131.398 156.644 131.552 136.31 131.705 136.31C131.858 136.31 131.96 156.644 131.96 181.678C131.96 206.763 131.858 227.046 131.705 227.046Z" fill="#263238"/>
<path d="M159.756 227.046C159.602 227.046 159.449 206.763 159.449 181.678C159.449 156.644 159.602 136.31 159.756 136.31C159.909 136.31 160.011 156.644 160.011 181.678C160.011 206.763 159.909 227.046 159.756 227.046Z" fill="#263238"/>
<path d="M70.8056 146.988H63.5508V141.623H70.8056V146.988Z" fill="#E0E0E0"/>
<path d="M70.8056 165.993H63.5508V160.68H70.8056V165.993Z" fill="#E0E0E0"/>
<path d="M70.8056 178.051H63.5508V172.737H70.8056V178.051Z" fill="#E0E0E0"/>
<path d="M70.8056 188.627H63.5508V183.313H70.8056V188.627Z" fill="#E0E0E0"/>
<path d="M153.363 146.988H137.934V141.623H153.363V146.988Z" fill="#E0E0E0"/>
<path d="M150.963 161.804H140.336V156.439H150.963V161.804Z" fill="#E0E0E0"/>
<path d="M150.963 177.949H140.336V172.636H150.963V177.949Z" fill="#E0E0E0"/>
<path d="M177.889 177.949H167.262V172.636H177.889V177.949Z" fill="#E0E0E0"/>
<path d="M150.963 188.729H140.336V183.364H150.963V188.729Z" fill="#E0E0E0"/>
<path d="M177.787 188.218H167.16V182.904H177.787V188.218Z" fill="#E0E0E0"/>
<path d="M177.787 162.11H167.16V156.797H177.787V162.11Z" fill="#E0E0E0"/>
<path d="M177.789 146.988H165.477V141.623H177.789V146.988Z" fill="#E0E0E0"/>
<path d="M122.971 146.988H82.6094V141.623H122.971V146.988Z" fill="#E0E0E0"/>
<path d="M106.622 164.869H82.6094V159.556H106.622V164.869Z" fill="#E0E0E0"/>
<path d="M122.971 177.591H82.6094V172.227H122.971V177.591Z" fill="#E0E0E0"/>
<path d="M104.016 188.218H82.6094V182.904H104.016V188.218Z" fill="#E0E0E0"/>
<path d="M183.92 238.286H159.754V226.024H183.92V238.286Z" fill="#01B1EC"/>
<path d="M177.891 76.7376H124.246V71.6797H177.891V76.7376Z" fill="#E0E0E0"/>
<path d="M75.4034 92.5765H62.3242V87.5186H75.4034V92.5765Z" fill="#E0E0E0"/>
<path d="M96.9111 101.109H61.9141V96.0508H96.9111V101.109Z" fill="#E0E0E0"/>
<path d="M166.293 92.5765H179.423V87.5186H166.293V92.5765Z" fill="#E0E0E0"/>
<path d="M144.785 101.109H179.782V96.0508H144.785V101.109Z" fill="#E0E0E0"/>
<path d="M96.9111 116.844H61.9141V111.735H96.9111V116.844Z" fill="#01B1EC"/>
<path d="M151.271 125.683H61.9141V120.574H151.271V125.683Z" fill="#E0E0E0"/>
<path d="M63.1406 69.0742H65.5419V77.5042H63.1406V69.0742Z" fill="#263238"/>
<path d="M75.1967 69.0742V77.5042H73.2552L69.5767 73.0082V77.5042H67.2266V69.0742H69.168L72.8976 73.5702V69.0742H75.1967Z" fill="#263238"/>
<path d="M85.4172 69.0742L81.7898 77.5042H79.4907L75.8633 69.0742H78.4689L80.7169 74.5409L83.0671 69.0742H85.4172Z" fill="#263238"/>
<path fill-rule="evenodd" clip-rule="evenodd" d="M85.3672 73.3147C85.3672 70.7602 87.3597 68.9209 90.0164 68.9209C92.7242 68.9209 94.7168 70.7602 94.7168 73.3147C94.7168 75.8181 92.7242 77.6574 90.0164 77.6574C87.3597 77.6574 85.3672 75.8181 85.3672 73.3147ZM92.3155 73.3147C92.3155 71.8331 91.2937 70.9134 90.0164 70.9134C88.7903 70.9134 87.7684 71.8331 87.7684 73.3147C87.7684 74.7452 88.7903 75.7159 90.0164 75.7159C91.2937 75.7159 92.3155 74.7452 92.3155 73.3147Z" fill="#263238"/>
<path d="M95.9375 69.0742H98.3388V77.5042H95.9375V69.0742Z" fill="#263238"/>
<path d="M99.6211 73.3147C99.6211 70.7602 101.563 68.9209 104.219 68.9209C105.752 68.9209 107.029 69.4829 107.847 70.5047L106.314 71.8842C105.803 71.22 105.139 70.9134 104.321 70.9134C102.942 70.9134 102.022 71.8331 102.022 73.3147C102.022 74.7452 102.942 75.7159 104.321 75.7159C105.139 75.7159 105.803 75.3583 106.314 74.6941L107.847 76.0736C107.029 77.0954 105.752 77.6574 104.219 77.6574C101.563 77.6574 99.6211 75.8692 99.6211 73.3147Z" fill="#263238"/>
<path d="M115.666 75.6649V77.5042H108.922V69.0742H115.513V70.9135H111.272V72.344H115.002V74.1322H111.272V75.6649H115.666Z" fill="#263238"/>
<path d="M54.6603 56.5569C54.6603 57.8342 53.6385 58.856 52.4124 58.856C51.1351 58.856 50.1133 57.8342 50.1133 56.5569C50.1133 55.2796 51.1351 54.2578 52.4124 54.2578C53.6385 54.2578 54.6603 55.2796 54.6603 56.5569Z" fill="#E0E0E0"/>
<path d="M60.5392 56.5569C60.5392 57.8342 59.5174 58.856 58.2913 58.856C57.014 58.856 55.9922 57.8342 55.9922 56.5569C55.9922 55.2796 57.014 54.2578 58.2913 54.2578C59.5174 54.2578 60.5392 55.2796 60.5392 56.5569Z" fill="#E0E0E0"/>
<path d="M66.4614 56.5569C66.4614 57.8342 65.4396 58.856 64.1624 58.856C62.8851 58.856 61.8633 57.8342 61.8633 56.5569C61.8633 55.2796 62.8851 54.2578 64.1624 54.2578C65.4396 54.2578 66.4614 55.2796 66.4614 56.5569Z" fill="#E0E0E0"/>
<path d="M336.028 430.488L202.426 429.926C186.332 429.824 173.355 417.817 173.458 403.001L174.837 94.8228C174.939 80.0576 188.018 68.1024 204.112 68.1535C204.112 68.1535 204.129 68.1535 204.163 68.1535L337.714 68.7155C353.807 68.7666 366.784 80.8239 366.682 95.5891L365.303 403.818C365.252 418.584 352.172 430.539 336.13 430.488C336.096 430.488 336.062 430.488 336.028 430.488Z" fill="#263238"/>
<path d="M336.584 77.2992L310.732 77.197L235.067 76.8394H225.973L203.289 76.7883C191.998 76.7372 182.853 85.2183 182.802 95.6918C182.802 95.6918 182.802 95.7088 182.802 95.7429L181.422 401.213C181.371 411.687 190.465 420.27 201.705 420.321L335.051 420.883C346.291 420.934 355.488 412.453 355.488 401.929L356.867 96.4071C356.918 85.9335 347.875 77.3503 336.584 77.2992Z" fill="white"/>
<path d="M337.813 104.479C337.813 105.399 337.047 106.114 336.127 106.114C335.208 106.114 334.441 105.399 334.441 104.479C334.441 103.559 335.208 102.793 336.127 102.793C337.047 102.793 337.813 103.559 337.813 104.479Z" fill="#263238"/>
<path d="M337.762 110.508C337.762 111.428 337.047 112.143 336.127 112.143C335.157 112.143 334.441 111.377 334.441 110.457C334.441 109.538 335.208 108.822 336.127 108.822C337.047 108.822 337.762 109.589 337.762 110.508Z" fill="#263238"/>
<path d="M337.759 116.486C337.759 117.405 336.992 118.121 336.073 118.172C335.153 118.172 334.387 117.405 334.387 116.486C334.387 115.566 335.153 114.8 336.073 114.8C336.992 114.8 337.759 115.566 337.759 116.486Z" fill="#263238"/>
<path d="M304.141 111.53H229.294C227.812 111.53 226.586 110.304 226.586 108.822C226.586 107.34 227.812 106.114 229.294 106.114H304.141C305.623 106.114 306.849 107.34 306.849 108.822C306.849 110.304 305.623 111.53 304.141 111.53Z" fill="#E0E0E0"/>
<path d="M306.181 378.886H236.544C228.217 378.886 221.473 372.142 221.473 363.815V363.355C221.473 355.027 228.217 348.283 236.544 348.283H306.181C314.509 348.283 321.253 355.027 321.253 363.355V363.815C321.253 372.142 314.509 378.886 306.181 378.886Z" fill="#01B1EC"/>
<path fill-rule="evenodd" clip-rule="evenodd" d="M267.458 362.231C267.458 364.172 265.976 365.398 263.575 365.398H262.042V367.697H259.59V358.961H263.575C265.976 358.961 267.458 360.238 267.458 362.231ZM264.954 362.231C264.954 361.413 264.443 360.902 263.422 360.902H262.042V363.457H263.422C264.443 363.457 264.954 362.997 264.954 362.231Z" fill="white"/>
<path fill-rule="evenodd" clip-rule="evenodd" d="M274.05 366.011H270.371L269.707 367.697H267.152L271.035 358.961H273.437L277.319 367.697H274.765L274.05 366.011ZM273.334 364.172L272.21 361.413L271.086 364.172H273.334Z" fill="white"/>
<path d="M282.121 364.581V367.697H279.669V364.53L276.348 358.961H278.953L280.997 362.435L283.092 358.961H285.493L282.121 364.581Z" fill="white"/>
<path d="M329.994 166.248H200.99C200.122 166.248 199.406 165.533 199.406 164.664V164.613C199.406 163.745 200.122 163.029 200.99 163.029H329.994C330.862 163.029 331.578 163.745 331.578 164.613V164.664C331.578 165.533 330.862 166.248 329.994 166.248Z" fill="#263238"/>
<g opacity="0.3">
<path d="M340.419 294.434C336.331 283.194 334.39 271.239 334.39 259.233V195.318C334.39 174.065 317.428 164.664 317.428 164.664H200.941C200.941 164.664 217.852 174.065 217.852 195.318C217.852 216.623 217.852 270.37 217.852 270.37C217.852 270.37 218.619 317.782 242.12 322.636L354.877 322.483H366.015V315.126C359.169 309.966 343.944 304.09 340.419 294.434Z" fill="black"/>
</g>
<path d="M345.274 288.814C341.187 277.574 339.245 265.619 339.245 253.613V189.75C339.245 168.445 319.115 164.664 319.115 164.664H202.629C202.629 164.664 222.708 168.445 222.708 189.75C222.708 211.003 222.708 264.75 222.708 264.75C222.708 264.75 223.474 312.214 246.976 317.067L368.929 316.505C357.178 314.104 349.77 301.178 345.274 288.814Z" fill="white"/>
<path d="M345.272 288.814C345.272 288.814 345.579 289.631 346.192 291.164C346.805 292.697 347.725 294.996 349.206 297.857C350.637 300.718 352.629 304.192 355.644 307.819C357.176 309.557 358.965 311.396 361.161 312.928C363.358 314.512 365.964 315.79 368.978 316.403L370.205 316.658H368.927C341.185 316.811 298.576 317.016 246.974 317.271H246.923C242.069 316.249 237.727 313.184 234.661 309.148C231.545 305.112 229.348 300.411 227.662 295.455C225.976 290.5 224.801 285.288 223.932 279.975C223.115 274.662 222.502 269.246 222.451 263.728C222.451 241.708 222.451 218.615 222.451 194.909C222.451 193.206 222.451 191.503 222.451 189.8L222.297 187.297L222.246 186.02C222.195 185.611 222.093 185.202 221.991 184.793C221.531 181.524 220.254 178.356 218.466 175.597C216.626 172.838 214.225 170.539 211.466 168.751C208.758 166.963 205.693 165.634 202.576 164.919L200.277 164.408H202.627C245.186 164.408 284.73 164.408 319.114 164.408H319.165C321.669 164.97 324.019 165.941 326.216 167.116C328.412 168.342 330.456 169.773 332.193 171.51C335.77 174.882 337.966 179.378 338.835 183.925C339.703 188.523 339.346 193.07 339.448 197.413C339.414 201.772 339.397 206.013 339.397 210.134C339.397 226.534 339.397 240.84 339.346 252.591C339.244 264.392 340.981 273.538 342.513 279.617C343.28 282.632 343.995 284.931 344.506 286.515C344.744 287.264 344.932 287.843 345.068 288.252C345.204 288.626 345.272 288.814 345.272 288.814C345.272 288.814 344.966 288.047 344.404 286.515C343.893 284.982 343.178 282.683 342.36 279.617C340.776 273.538 339.039 264.392 339.09 252.591C339.09 240.84 339.09 226.534 339.039 210.134C339.039 206.013 339.039 201.772 339.039 197.413C338.937 193.019 339.295 188.523 338.426 184.027C337.558 179.531 335.412 175.086 331.887 171.816C330.201 170.13 328.208 168.7 326.011 167.525C323.865 166.401 321.515 165.43 319.063 164.868H319.114C284.73 164.868 245.186 164.919 202.627 164.919L202.679 164.408C205.897 165.123 208.963 166.503 211.773 168.291C214.583 170.13 217.035 172.481 218.925 175.291C220.765 178.1 222.093 181.37 222.553 184.742C222.604 185.151 222.706 185.56 222.757 185.968L222.859 187.246L223.013 189.8C223.013 191.503 223.013 193.206 223.013 194.909C223.013 218.615 223.013 241.708 222.962 263.728C223.064 269.195 223.626 274.611 224.443 279.924C225.312 285.186 226.436 290.346 228.122 295.302C229.808 300.207 231.953 304.907 235.07 308.841C238.084 312.826 242.325 315.79 247.025 316.811H246.974C298.576 316.607 341.185 316.505 368.927 316.403V316.658C365.913 316.045 363.256 314.717 361.008 313.133C358.811 311.549 357.023 309.71 355.49 307.922C352.476 304.294 350.484 300.769 349.053 297.908C347.623 294.996 346.754 292.697 346.09 291.164C345.528 289.631 345.272 288.814 345.272 288.814Z" fill="#263238"/>
<path d="M372.958 316.505C381.133 310.527 386.446 300.82 387.059 290.704L255.297 290.193C255.961 296.324 255.297 302.557 253.304 308.382C252.129 311.702 250.443 315.023 247.582 317.067L372.958 316.505Z" fill="#E0E0E0"/>
<path d="M372.956 316.506C372.956 316.506 372.751 316.523 372.343 316.557C371.934 316.557 371.321 316.557 370.503 316.557C368.92 316.608 366.518 316.608 363.453 316.659C357.322 316.71 348.381 316.761 337.192 316.812C314.764 316.965 283.445 317.119 247.579 317.323H246.711L247.426 316.812C249.317 315.535 250.696 313.593 251.718 311.499C252.74 309.353 253.506 307.054 254.068 304.755C255.243 300.054 255.601 295.15 255.039 290.245V289.938H255.294C256.52 289.938 257.849 289.938 259.177 289.938C311.902 290.194 358.599 290.398 387.057 290.552H387.21V290.705C386.903 295.558 385.575 299.748 383.991 303.12C382.407 306.543 380.517 309.149 378.831 311.141C377.145 313.134 375.612 314.411 374.591 315.279C373.518 316.148 372.956 316.506 372.956 316.506C372.956 316.506 373.092 316.403 373.364 316.199C373.637 315.961 374.029 315.637 374.54 315.228C375.561 314.36 377.043 313.031 378.729 311.039C380.364 309.046 382.203 306.441 383.787 303.018C385.32 299.646 386.597 295.507 386.903 290.705L387.057 290.858C358.599 290.807 311.902 290.654 259.177 290.5C257.849 290.449 256.52 290.449 255.294 290.449L255.601 290.143C256.112 295.15 255.754 300.157 254.579 304.857C254.017 307.258 253.251 309.557 252.229 311.703C251.156 313.849 249.674 315.892 247.733 317.272L247.579 316.761C283.394 316.659 314.712 316.557 337.09 316.506C348.279 316.506 357.271 316.454 363.402 316.454C366.518 316.454 368.868 316.454 370.503 316.506C371.287 316.506 371.9 316.506 372.343 316.506C372.751 316.506 372.956 316.506 372.956 316.506Z" fill="#263238"/>
<path d="M324.062 189.29C324.062 189.443 304.545 189.596 280.533 189.596C256.52 189.596 237.055 189.443 237.055 189.29C237.055 189.136 256.52 189.034 280.533 189.034C304.545 189.034 324.062 189.136 324.062 189.29Z" fill="#263238"/>
<path d="M324.062 207.836C324.062 207.989 304.545 208.091 280.533 208.091C256.52 208.091 237.055 207.989 237.055 207.836C237.055 207.682 256.52 207.58 280.533 207.58C304.545 207.58 324.062 207.682 324.062 207.836Z" fill="#263238"/>
<path d="M329.222 258.876C329.222 259.029 308.581 259.182 283.138 259.182C257.695 259.182 237.055 259.029 237.055 258.876C237.055 258.722 257.695 258.62 283.138 258.62C308.581 258.62 329.222 258.722 329.222 258.876Z" fill="#263238"/>
<path fill-rule="evenodd" clip-rule="evenodd" d="M270.273 181.574C270.273 183.056 269.047 183.976 266.696 183.976H261.996V175.239H266.441C268.74 175.239 269.864 176.159 269.864 177.538C269.864 178.356 269.404 179.02 268.689 179.429C269.66 179.786 270.273 180.502 270.273 181.574ZM264.397 177.027V178.713H266.134C266.952 178.713 267.361 178.424 267.361 177.845C267.361 177.334 266.952 177.027 266.134 177.027H264.397ZM267.718 181.319C267.718 180.706 267.31 180.399 266.441 180.399H264.397V182.188H266.441C267.31 182.188 267.718 181.881 267.718 181.319Z" fill="#263238"/>
<path d="M271.547 175.239H273.999V183.976H271.547V175.239Z" fill="#263238"/>
<path d="M275.793 175.239H278.245V181.983H282.435V183.976H275.793V175.239Z" fill="#263238"/>
<path d="M283.402 175.239H285.855V181.983H289.993V183.976H283.402V175.239Z" fill="#263238"/>
<path d="M282.377 202.574H238.184V195.983H282.377V202.574Z" fill="#E0E0E0"/>
<path d="M326.264 202.573H300.055V195.982H326.264V202.573Z" fill="#E0E0E0"/>
<path d="M280.538 222.601H238.184V215.959H280.538V222.601Z" fill="#E0E0E0"/>
<path d="M255.912 236.702H238.184V230.111H255.912V236.702Z" fill="#E0E0E0"/>
<path d="M266.896 249.781H238.184V243.19H266.896V249.781Z" fill="#E0E0E0"/>
<path d="M331.065 285.902H241.555V279.312H331.065V285.902Z" fill="#E0E0E0"/>
<path d="M326.98 222.601H314.105V215.959H326.98V222.601Z" fill="#01B1EC"/>
<path d="M326.98 235.221H314.105V228.63H326.98V235.221Z" fill="#01B1EC"/>
<path d="M326.98 249.27H314.105V242.68H326.98V249.27Z" fill="#01B1EC"/>
<path d="M326.776 271.392H308.945V264.802H326.776V271.392Z" fill="#01B1EC"/>
<g opacity="0.3">
<path d="M366.26 133.806L283.647 132.58C279.151 132.58 275.523 128.953 275.523 124.457V68.5635H335.912C352.006 68.5635 366.669 78.8838 366.669 97.6851L366.26 133.806Z" fill="black"/>
</g>
<path d="M287.795 35.6094H420.784C423.134 35.6094 425.024 37.4997 425.024 39.8499V121.084C425.024 123.434 423.134 125.324 420.784 125.324H287.795C285.496 125.324 283.605 123.434 283.605 121.084V39.8499C283.605 37.4997 285.496 35.6094 287.795 35.6094Z" fill="#01B1EC"/>
<path fill-rule="evenodd" clip-rule="evenodd" d="M306.9 56.0965C306.9 57.2715 305.98 57.9357 304.243 57.9357H300.82V51.2939H304.039C305.674 51.2939 306.542 51.9581 306.542 52.9799C306.542 53.6441 306.236 54.2061 305.674 54.4616C306.389 54.6659 306.9 55.3301 306.9 56.0965ZM302.302 52.4179V54.0017H303.835C304.601 54.0017 305.01 53.7463 305.01 53.2354C305.01 52.7245 304.601 52.4179 303.835 52.4179H302.302ZM305.367 55.9432C305.367 55.3812 304.908 55.1257 304.09 55.1257H302.302V56.7606H304.09C304.908 56.7606 305.367 56.5052 305.367 55.9432Z" fill="white"/>
<path fill-rule="evenodd" clip-rule="evenodd" d="M312.419 56.5052H309.353L308.74 57.9357H307.156L310.119 51.2939H311.652L314.564 57.9357H312.981L312.419 56.5052ZM311.908 55.3301L310.886 52.7756L309.813 55.3301H311.908Z" fill="white"/>
<path d="M321.412 51.2949V57.9367H320.135L316.814 53.9005V57.9367H315.281V51.2949H316.559L319.879 55.3311V51.2949H321.412Z" fill="white"/>
<path d="M325.393 55.3308L324.474 56.3015V57.9875H322.992V51.3457H324.525V54.4111L327.488 51.3457H329.174L326.415 54.2579L329.379 57.9364H327.59L325.393 55.3308Z" fill="white"/>
<path d="M305.622 83.6854H304.396V85.3203H303.782V83.6854H300.359V83.2767L303.578 79.1895H304.293L301.177 83.1234H303.834V81.744H304.396V83.1234H305.622V83.6854Z" fill="white"/>
<path d="M310.116 83.5842C310.116 84.5549 309.35 85.3724 307.92 85.3724C307.102 85.3724 306.336 85.1169 305.723 84.606L306.029 84.0951C306.54 84.5549 307.204 84.8104 307.92 84.8104C308.89 84.8104 309.452 84.2995 309.452 83.5842C309.452 82.8179 308.941 82.358 307.817 82.358H307.409V81.8982L309.095 79.7524H305.978V79.1904H309.861V79.6502L308.175 81.8471C309.452 81.9493 310.116 82.6135 310.116 83.5842Z" fill="white"/>
<path d="M315.023 83.5322C315.023 84.554 314.307 85.3714 312.826 85.3714C312.008 85.3714 311.242 85.116 310.629 84.6051L310.935 84.0941C311.446 84.554 312.111 84.8094 312.826 84.8094C313.848 84.8094 314.41 84.2985 314.41 83.5322C314.41 82.8169 313.899 82.2549 312.366 82.2549H311.089L311.395 79.1895H314.716V79.7515H311.957L311.702 81.744H312.519C314.359 81.6929 315.023 82.4592 315.023 83.5322Z" fill="white"/>
<path fill-rule="evenodd" clip-rule="evenodd" d="M320.442 83.4811C320.391 84.554 319.522 85.3715 318.5 85.3715C318.432 85.3715 318.381 85.3715 318.347 85.3715C316.712 85.3715 315.844 84.2475 315.844 82.3061C315.844 80.2624 316.968 79.1895 318.603 79.1895C319.114 79.1384 319.624 79.2406 320.084 79.4961L319.829 80.007C319.471 79.8026 319.062 79.7004 318.654 79.7004C317.325 79.7004 316.457 80.569 316.457 82.2039C316.457 82.3401 316.457 82.5104 316.457 82.7148C316.814 81.9995 317.581 81.6419 318.347 81.693C319.369 81.5397 320.289 82.255 320.391 83.2768C320.425 83.3449 320.442 83.413 320.442 83.4811ZM319.778 83.4811C319.778 82.6637 319.216 82.1528 318.245 82.1528C317.479 82.1017 316.814 82.6637 316.712 83.43C316.712 83.4641 316.712 83.4811 316.712 83.4811C316.712 84.1964 317.274 84.8095 318.296 84.8095C319.062 84.9117 319.727 84.4008 319.778 83.6344C319.778 83.6003 319.778 83.5663 319.778 83.5322V83.4811Z" fill="white"/>
<path d="M333.569 85.3208L332.138 83.3794L330.657 85.3208H329.941L331.781 82.9706L330.044 80.7227H330.759L332.138 82.5108L333.518 80.7227H334.182L332.445 82.9196L334.284 85.2697L333.569 85.3208Z" fill="white"/>
<path d="M338.225 85.3208L336.743 83.3794L335.313 85.3208H334.598L336.386 82.9706L334.7 80.7227H335.364L336.743 82.5108L338.123 80.7227H338.787L337.101 82.9196L338.94 85.2697L338.225 85.3208Z" fill="white"/>
<path d="M342.869 85.3208L341.439 83.3794L339.957 85.3208H339.293L341.081 82.9706L339.344 80.7227H340.059L341.439 82.5108L342.818 80.7227H343.482L341.745 82.9196L343.585 85.2697L342.869 85.3208Z" fill="white"/>
<path d="M347.518 85.3208L346.088 83.3794L344.606 85.3208H343.891L345.73 82.9706L343.993 80.7227H344.708L346.036 82.5108L347.416 80.7227H348.131L346.394 82.9196L348.233 85.2697L347.518 85.3208Z" fill="white"/>
<path d="M363.557 85.3208L362.126 83.3794L360.645 85.3208H359.98L361.769 82.9196L360.032 80.7227H360.747L362.126 82.5108L363.506 80.7227H364.221L362.433 82.9196L364.272 85.2697L363.557 85.3208Z" fill="white"/>
<path d="M368.206 85.3208L366.775 83.3794L365.293 85.3208H364.578L366.417 82.9706L364.68 80.7227H365.396L366.775 82.5108L368.154 80.7227H368.819L367.082 82.9196L368.921 85.2697L368.206 85.3208Z" fill="white"/>
<path d="M372.85 85.3208L371.419 83.3794L369.938 85.3208H369.273L371.062 82.9196L369.376 80.7227H370.04L371.419 82.5108L372.799 80.7227H373.463L371.726 82.9196L373.565 85.2697L372.85 85.3208Z" fill="white"/>
<path d="M377.502 85.3208L376.072 83.3794L374.59 85.3208H373.926L375.714 82.9706L374.028 80.7227H374.743L376.123 82.5108L377.502 80.7227H378.166L376.378 82.9196L378.217 85.2697L377.502 85.3208Z" fill="white"/>
<path d="M391.915 79.1895V85.3203H391.302V79.7515H389.871V79.1895H391.915Z" fill="white"/>
<path d="M397.433 83.5832C397.433 84.554 396.667 85.3714 395.185 85.3714C394.419 85.3714 393.601 85.116 392.988 84.6051L393.295 84.0941C393.806 84.554 394.521 84.8094 395.185 84.8094C396.207 84.8094 396.769 84.2985 396.769 83.5832C396.769 82.8169 396.258 82.3571 395.134 82.3571H394.674V81.8973L396.36 79.7515H393.244V79.1895H397.178V79.6493L395.492 81.8462C396.769 81.9483 397.433 82.6125 397.433 83.5832Z" fill="white"/>
<path d="M403.454 83.6854H402.228V85.3203H401.614V83.6854H398.191V83.2767L401.41 79.1895H402.125L399.009 83.1234H401.614V81.744H402.228V83.1234H403.454V83.6854Z" fill="white"/>
<path d="M408.16 84.7583V85.3203H403.919V84.9116L406.423 82.4081C407.138 81.7439 407.24 81.3352 407.24 80.9265C407.24 80.2112 406.729 79.7514 405.81 79.7514C405.196 79.7514 404.583 80.0069 404.175 80.4667L403.715 80.0579C404.277 79.496 405.043 79.1383 405.861 79.1894C407.087 79.1894 407.904 79.8025 407.904 80.8243C407.853 81.5907 407.496 82.3059 406.882 82.7658L404.839 84.8094L408.16 84.7583Z" fill="white"/>
<path d="M297.238 97.9406C297.238 97.1232 297.902 96.459 298.72 96.459C298.754 96.459 298.788 96.459 298.822 96.459C299.231 96.459 299.691 96.6123 299.997 96.9699L299.537 97.3786C299.384 97.1743 299.129 97.021 298.822 97.021C298.311 97.021 297.902 97.4297 297.902 97.9406C297.902 98.4515 298.311 98.9113 298.822 98.9113C299.129 98.9113 299.384 98.7581 299.537 98.5537L299.997 98.9624C299.691 99.269 299.231 99.4733 298.771 99.4733C297.954 99.5244 297.289 98.8602 297.238 98.0428C297.238 98.0087 297.238 97.9747 297.238 97.9406Z" fill="white"/>
<path fill-rule="evenodd" clip-rule="evenodd" d="M302.303 98.8091H300.975L300.719 99.4222H300.004L301.332 96.459H301.996L303.274 99.4222H302.558L302.303 98.8091ZM302.099 98.2982L301.639 97.1742L301.179 98.2982H302.099Z" fill="white"/>
<path fill-rule="evenodd" clip-rule="evenodd" d="M305.417 99.4222L304.855 98.6048H304.242V99.4222H303.578V96.459H304.855C305.622 96.459 306.133 96.8677 306.133 97.5319C306.133 97.9406 305.877 98.2982 305.52 98.4515L306.133 99.3711L305.417 99.4222ZM304.804 97.0721H304.242V98.0428H304.804C305.213 98.0428 305.417 97.8384 305.417 97.5319C305.417 97.2253 305.213 97.0721 304.804 97.0721Z" fill="white"/>
<path d="M306.391 99.1157L306.646 98.6048C306.953 98.8091 307.259 98.9113 307.617 98.9113C308.026 98.9113 308.179 98.8091 308.179 98.6048C308.179 98.0428 306.493 98.4515 306.493 97.3786C306.493 96.8677 306.902 96.459 307.719 96.459C308.077 96.459 308.383 96.5612 308.69 96.7144L308.485 97.2253C308.247 97.0891 307.974 97.021 307.668 97.021C307.31 97.021 307.106 97.1232 307.106 97.3275C307.106 97.8384 308.843 97.4808 308.843 98.5537C308.843 99.0646 308.434 99.4733 307.617 99.4733C307.157 99.4733 306.748 99.3711 306.391 99.1157Z" fill="white"/>
<path d="M313.184 96.5098V99.473H312.52V98.2468H311.192V99.473H310.527V96.5098H311.192V97.6338H312.52V96.5098H313.184Z" fill="white"/>
<path fill-rule="evenodd" clip-rule="evenodd" d="M313.643 97.9404C313.592 97.0719 314.256 96.3566 315.176 96.3055C316.045 96.2544 316.76 96.9186 316.811 97.7871C316.862 98.6557 316.198 99.422 315.329 99.4731C315.295 99.4731 315.261 99.4731 315.227 99.4731C314.41 99.5242 313.694 98.86 313.643 98.0426C313.643 98.0085 313.643 97.9745 313.643 97.9404ZM316.147 97.9404C316.147 97.4295 315.738 97.0719 315.227 97.0719C314.716 97.0719 314.308 97.4806 314.308 97.9915C314.359 98.5024 314.767 98.9111 315.227 98.9111C315.738 98.9111 316.147 98.5024 316.147 97.9915C316.147 97.9915 316.147 97.9745 316.147 97.9404Z" fill="white"/>
<path d="M317.32 96.5098H318.036V98.8599H319.466V99.4219H317.32V96.5098Z" fill="white"/>
<path fill-rule="evenodd" clip-rule="evenodd" d="M319.875 96.5098H321.203C321.97 96.5098 322.634 97.1739 322.634 97.9914C322.634 98.8088 321.97 99.473 321.203 99.473H319.875V96.5098ZM321.152 98.8599C321.663 98.8599 322.072 98.4512 322.072 97.9403C322.072 97.4294 321.663 97.0207 321.152 97.0207H320.539V98.8599H321.152Z" fill="white"/>
<path d="M325.545 98.8602V99.4222H323.297V96.459H325.494V97.021H323.961V97.6341H325.34V98.1961H323.961V98.8602H325.545Z" fill="white"/>
<path fill-rule="evenodd" clip-rule="evenodd" d="M327.894 99.4222L327.332 98.6048H326.719V99.4222H326.055V96.459H327.332C328.098 96.459 328.558 96.8677 328.558 97.5319C328.609 97.9406 328.354 98.2982 327.996 98.4515L328.609 99.3711L327.894 99.4222ZM326.719 97.0721V98.0428H327.281C327.69 98.0428 327.894 97.8384 327.894 97.5319C327.894 97.2253 327.69 97.0721 327.281 97.0721H326.719Z" fill="white"/>
<path d="M298.115 106.626H338.119C338.987 106.626 339.702 107.341 339.702 108.21V108.823C339.702 109.691 338.987 110.356 338.119 110.356H298.115C297.246 110.356 296.582 109.691 296.582 108.823V108.21C296.582 107.341 297.246 106.626 298.115 106.626Z" fill="white"/>
<path d="M388.596 106.626H409.44C410.309 106.626 410.973 107.341 410.973 108.21V108.823C410.973 109.691 410.309 110.356 409.44 110.356H388.596C387.727 110.356 387.012 109.691 387.012 108.823V108.21C387.012 107.341 387.727 106.626 388.596 106.626Z" fill="white"/>
<g opacity="0.2">
<path d="M420.324 35.6094H288.306C285.7 35.6094 283.605 37.7041 283.605 40.3097V63.9646C291.933 69.789 303.429 70.8619 313.545 68.7161C325.551 66.2126 336.382 60.0817 347.571 55.0238C358.709 50.0169 370.97 45.9808 383.079 48.0755C394.472 50.0169 404.179 57.1185 414.448 62.3808C417.82 64.1179 421.397 65.5484 425.024 66.6213V40.3097C425.024 37.7041 422.929 35.6094 420.324 35.6094Z" fill="white"/>
</g>
<path d="M393.952 48.0244H400.85C402.587 48.0244 403.966 49.455 403.966 51.1409V58.0382C403.966 59.7752 402.587 61.1547 400.85 61.1547H393.952C392.266 61.1547 390.836 59.7752 390.836 58.0382V51.1409C390.836 49.455 392.266 48.0244 393.952 48.0244Z" fill="white"/>
<path d="M91.0889 462.114H84.1406L75.7617 412.965H85.9798L91.0889 462.114Z" fill="#AE7461"/>
<path d="M26.0508 462.114H32.9991L41.429 412.965H31.2109L26.0508 462.114Z" fill="#AE7461"/>
<path d="M208.035 462.114H201.035L192.656 412.965H202.874L208.035 462.114Z" fill="#AE7461"/>
<path d="M142.996 462.114H149.944L158.323 412.965H148.105L142.996 462.114Z" fill="#AE7461"/>
<path d="M208.24 414.038H19.5625V393.295H208.24V414.038Z" fill="#01B1EC"/>
<path d="M187.341 382.821H70.446C65.388 382.821 61.3008 378.734 61.3008 373.676V363.1C61.3008 358.042 65.388 353.955 70.446 353.955H187.341C192.399 353.955 196.486 358.042 196.486 363.1V373.676C196.486 378.734 192.399 382.821 187.341 382.821Z" fill="#01B1EC"/>
<path d="M212.736 393.806H155.617V337.504H202.723C208.24 337.504 212.736 342 212.736 347.518V393.806Z" fill="#01B1EC"/>
<path d="M171.197 353.956H66.9727V277.422H157.812C165.22 277.422 171.197 283.451 171.197 290.808V353.956Z" fill="#01B1EC"/>
<path d="M192.405 394.163L75.7656 394.265V381.288H192.405V394.163Z" fill="#01B1EC"/>
<path d="M139.83 353.956H19.5625V282.684C19.5625 279.772 21.9127 277.422 24.8248 277.422H139.83V353.956Z" fill="#01B1EC"/>
<g opacity="0.3">
<path d="M41.2249 353.956H27.5837C23.1388 353.956 19.5625 350.379 19.5625 345.985V282.633C19.5625 279.772 21.9127 277.422 24.7737 277.422H49.2461V345.985C49.2461 350.379 45.6698 353.956 41.2249 353.956Z" fill="black"/>
</g>
<path d="M101.847 251.109L96.0225 218.717C94.4898 208.857 98.9347 199.763 108.795 198.537L109.715 198.486C118.962 197.821 127.137 204.412 128.516 213.557C129.793 222.089 131.122 231.541 131.377 236.139C131.888 245.693 122.487 247.788 122.487 247.788C122.436 247.788 123.049 253.561 123.356 256.371L121.772 263.728L101.847 251.109Z" fill="#FFBF9D"/>
<path d="M122.44 247.837C122.44 247.837 116.462 248.604 109.82 245.027C109.82 245.027 113.294 251.976 122.746 250.443L122.44 247.837Z" fill="#FF9A6C"/>
<path d="M126.133 222.447C126.184 223.162 125.673 223.826 124.907 223.877C124.192 223.979 123.528 223.468 123.425 222.753C123.374 222.038 123.885 221.374 124.652 221.323C125.367 221.22 126.082 221.731 126.133 222.447Z" fill="#263238"/>
<path d="M126.758 217.593C126.604 217.798 125.532 217.083 124.101 217.185C122.619 217.287 121.598 218.104 121.444 217.951C121.342 217.849 121.495 217.542 121.955 217.134C122.364 216.776 123.13 216.418 124.05 216.316C124.97 216.265 125.736 216.572 126.196 216.878C126.707 217.185 126.86 217.491 126.758 217.593Z" fill="#263238"/>
<path d="M113.449 223.419C113.551 224.134 112.989 224.799 112.223 224.901C111.508 225.003 110.844 224.492 110.742 223.777C110.69 223.062 111.252 222.397 111.968 222.295C112.734 222.193 113.398 222.704 113.449 223.419Z" fill="#263238"/>
<path d="M112.413 218.924C112.26 219.077 111.187 218.413 109.705 218.515C108.275 218.617 107.253 219.434 107.049 219.23C106.997 219.179 107.151 218.821 107.559 218.464C108.019 218.106 108.786 217.697 109.705 217.646C110.574 217.595 111.391 217.902 111.851 218.208C112.311 218.515 112.515 218.821 112.413 218.924Z" fill="#263238"/>
<path d="M118.517 229.806C118.517 229.703 119.386 229.499 120.868 229.193C121.225 229.142 121.583 229.039 121.634 228.784C121.685 228.528 121.532 228.12 121.276 227.711C120.868 226.825 120.442 225.889 119.999 224.901C118.211 220.967 116.831 217.697 117.036 217.646C117.189 217.595 118.773 220.712 120.561 224.646C121.004 225.633 121.43 226.57 121.838 227.456C121.992 227.864 122.298 228.324 122.145 228.886C122.043 229.193 121.787 229.397 121.532 229.499C121.327 229.601 121.123 229.601 120.919 229.652C119.437 229.806 118.517 229.857 118.517 229.806Z" fill="#263238"/>
<path d="M112.568 214.271C112.415 214.68 110.984 214.373 109.247 214.476C107.51 214.527 106.079 214.935 105.875 214.527C105.773 214.373 106.079 214.016 106.641 213.658C107.203 213.3 108.123 212.994 109.196 212.994C110.218 212.943 111.137 213.198 111.75 213.454C112.363 213.76 112.67 214.118 112.568 214.271Z" fill="#263238"/>
<path d="M126.534 213.304C126.279 213.661 125.053 213.406 123.622 213.508C122.192 213.559 120.965 213.917 120.659 213.61C120.557 213.457 120.71 213.099 121.221 212.742C121.681 212.384 122.549 212.077 123.52 212.026C124.542 211.975 125.41 212.18 125.921 212.486C126.483 212.793 126.636 213.099 126.534 213.304Z" fill="#263238"/>
<path d="M97.2753 225.36C97.122 225.309 90.5824 223.878 91.2466 230.367C91.9107 236.855 99.4211 235.067 99.4211 235.067C99.4211 234.863 97.2753 225.36 97.2753 225.36Z" fill="#FFBF9D"/>
<path d="M96.0355 232.41C95.9844 232.41 95.9333 232.512 95.729 232.614C95.5757 232.716 95.2692 232.818 94.9115 232.716C94.1963 232.563 93.481 231.49 93.3277 230.366C93.2766 229.753 93.3277 229.191 93.481 228.68C93.6343 228.22 93.9408 227.812 94.2473 227.76C94.605 227.607 94.8604 227.812 94.9626 227.965C95.0648 228.169 95.0648 228.271 95.0648 228.271C95.1159 228.322 95.2181 228.169 95.1159 227.914C95.1159 227.76 95.0137 227.658 94.8093 227.505C94.6561 227.403 94.4517 227.352 94.1963 227.403C93.6854 227.505 93.2766 228.016 93.1234 228.527C92.919 229.089 92.8168 229.753 92.919 230.417C93.0723 231.694 93.8897 232.87 94.8093 233.023C95.3202 233.125 95.6779 232.921 95.8312 232.767C96.0355 232.563 96.0355 232.461 96.0355 232.41Z" fill="#FF9A6C"/>
<path d="M140.643 203.288C140.541 202.879 140.235 202.624 139.877 202.419C139.059 202.062 138.242 202.215 137.373 202.266C135.33 202.47 133.235 202.113 131.294 201.398C131.907 200.989 132.469 200.529 132.929 199.967C133.848 198.843 134.308 197.157 133.695 195.829C133.593 195.573 133.388 195.267 133.133 195.216C132.673 195.165 132.367 195.573 132.111 195.931C131.243 197.157 130.374 197.668 128.944 197.668C128.024 197.668 127.155 197.566 126.389 197.208C126.355 197.174 126.321 197.14 126.287 197.106C125.912 196.799 125.555 196.493 125.214 196.186C122.506 194.041 120.258 192.559 118.01 191.895C114.689 190.924 109.376 190.924 106.106 192.099C102.887 193.325 100.18 196.289 100.077 199.712C98.0848 198.332 95.2748 198.639 93.129 199.763L93.078 199.712C90.6256 200.887 89.4505 203.697 88.9907 206.302C88.9566 206.473 88.9226 206.626 88.8885 206.762C88.1733 208.193 87.1514 209.47 85.8231 210.39C85.6187 210.543 85.3633 210.747 85.3633 211.054C85.3633 211.309 85.6187 211.514 85.8231 211.667C86.4873 212.024 87.2025 212.28 87.9689 212.331C87.7986 212.944 87.5772 213.557 87.3047 214.17C87.0493 214.681 86.7938 215.294 87.1004 215.754C87.3047 216.112 87.8156 216.214 88.2243 216.112C88.6331 216.009 88.9907 215.754 89.3483 215.499C89.144 216.18 88.9396 216.878 88.7353 217.593C89.6549 217.644 90.5745 217.491 91.4431 217.133C92.2094 219.484 93.0269 223.877 93.7932 225.461C95.5303 225.308 95.939 225.104 96.8586 225.308C97.9826 225.563 97.7783 227.607 99.1577 226.892C99.9241 226.534 100.742 223.571 100.946 222.805C102.121 217.593 102.121 212.127 100.997 206.915C101.917 205.689 103.092 204.667 104.42 203.901L104.318 204.003C106.872 202.828 109.785 201.653 112.441 202.624C114.485 203.39 115.864 205.332 117.448 206.813C120.565 209.572 123.834 210.9 127.973 210.696C128.637 213.506 129.199 218.206 129.608 220.863L131.396 215.294C131.532 214.988 131.651 214.664 131.754 214.324L131.805 214.221C132.009 213.659 132.162 213.148 132.418 212.586C132.418 212.62 132.418 212.638 132.418 212.638C134.001 213.762 135.943 211.616 134.666 210.134C134.393 209.862 134.104 209.623 133.797 209.419C134.512 209.981 135.534 210.185 136.352 209.828C137.22 209.47 137.782 208.499 137.629 207.631C137.527 207.018 137.016 206.507 136.454 206.302C137.629 206.302 138.804 205.894 139.775 205.229C140.388 204.77 141.001 204.105 140.643 203.288Z" fill="#263238"/>
<path d="M103.197 200.53C103.197 200.53 102.788 200.837 102.328 201.501C101.817 202.165 101.306 203.289 101.153 204.771C101.102 205.537 101.051 206.355 101.153 207.223C101.255 208.092 101.408 209.011 101.562 210.033C101.715 211.004 101.919 212.026 101.919 213.15C101.953 213.695 101.936 214.24 101.868 214.785C101.817 215.347 101.715 215.96 101.357 216.471C101.102 216.879 100.54 217.084 100.08 217.033C99.6202 216.981 99.1604 216.777 98.8028 216.471C98.1386 215.806 97.8831 214.938 97.6277 214.171H97.8321C97.5766 214.887 97.3211 215.653 96.9124 216.266C96.4526 216.879 95.8395 217.339 95.1243 217.441C94.8177 217.492 94.4601 217.492 94.1535 217.39C93.847 217.237 93.5915 217.033 93.3872 216.777C93.2339 216.522 93.1317 216.266 93.1317 215.96C93.1317 215.653 93.1828 215.398 93.3361 215.193L93.4894 215.295C92.8252 216.164 92.1099 216.726 91.599 216.981C91.3265 217.152 91.1222 217.254 90.9859 217.288C90.8156 217.356 90.7305 217.39 90.7305 217.39C90.7305 217.39 90.7986 217.356 90.9348 217.288C91.0711 217.22 91.2754 217.101 91.5479 216.93C92.0077 216.624 92.723 216.113 93.3361 215.193L93.4894 215.295C93.1828 215.653 93.2339 216.215 93.5404 216.675C93.6937 216.93 93.9492 217.135 94.2046 217.237C94.4601 217.339 94.8177 217.339 95.1243 217.288C95.7373 217.135 96.3504 216.726 96.7081 216.164C97.1679 215.551 97.4233 214.836 97.6277 214.069L97.781 213.763L97.8321 214.069C98.0875 214.887 98.343 215.704 98.956 216.317C99.2626 216.573 99.6713 216.777 100.08 216.828C100.54 216.879 100.949 216.675 101.204 216.317C101.511 215.909 101.613 215.295 101.664 214.785C101.732 214.24 101.749 213.695 101.715 213.15C101.664 212.077 101.511 211.055 101.357 210.033C101.204 209.062 101.051 208.143 100.949 207.223C100.897 206.355 100.897 205.537 101 204.771C101.153 203.238 101.715 202.114 102.226 201.45C102.788 200.786 103.197 200.53 103.197 200.53Z" fill="#455A64"/>
<path d="M133.506 206.865C133.506 206.865 133.489 206.899 133.455 206.967C133.387 207.002 133.319 207.07 133.251 207.172C133.149 207.24 133.013 207.325 132.842 207.427C132.689 207.581 132.536 207.683 132.28 207.785C131.463 208.296 130.083 208.858 128.295 208.96C126.558 209.011 124.361 208.602 122.369 207.376C120.325 206.201 118.435 204.362 116.851 202.165C116.085 201.092 115.369 199.968 114.654 198.946C113.939 197.924 113.172 197.005 112.253 196.29C111.333 195.523 110.362 195.063 109.341 194.859C108.83 194.757 108.37 194.808 107.859 194.859C107.416 194.927 106.99 195.046 106.582 195.217C105.764 195.574 105.151 196.085 104.691 196.596C104.283 197.158 103.976 197.669 103.772 198.129C103.414 199.048 103.465 199.61 103.414 199.61C103.414 199.61 103.414 199.576 103.414 199.508C103.414 199.406 103.431 199.304 103.465 199.202C103.465 198.946 103.516 198.538 103.721 198.078C103.874 197.618 104.18 197.056 104.64 196.545C105.1 195.983 105.713 195.472 106.531 195.063C106.939 194.91 107.348 194.757 107.859 194.655C108.319 194.604 108.83 194.604 109.392 194.706C110.413 194.859 111.435 195.37 112.355 196.085C113.326 196.852 114.092 197.771 114.858 198.844C115.574 199.866 116.238 200.99 117.055 202.063C118.639 204.209 120.478 206.048 122.471 207.223C124.463 208.398 126.558 208.858 128.295 208.807C130.032 208.756 131.412 208.194 132.28 207.734C133.098 207.274 133.506 206.865 133.506 206.865Z" fill="#455A64"/>
<path d="M133.965 202.625C133.965 202.625 133.863 202.71 133.658 202.88C133.454 203.034 133.096 203.289 132.687 203.494C132.279 203.749 131.768 203.953 131.155 204.158C130.542 204.362 129.877 204.566 129.111 204.669C128.396 204.771 127.681 204.771 127.068 204.72C126.403 204.669 125.841 204.566 125.382 204.464C124.922 204.362 124.564 204.209 124.309 204.107C124.036 204.004 123.917 203.953 123.951 203.953C123.951 203.902 124.513 204.107 125.433 204.311C125.892 204.413 126.454 204.464 127.068 204.515C127.681 204.515 128.396 204.515 129.111 204.413C129.826 204.311 130.491 204.158 131.104 204.004C131.666 203.8 132.177 203.596 132.636 203.34C133.454 202.932 133.965 202.574 133.965 202.625Z" fill="#455A64"/>
<path d="M118.827 234.253C118.725 233.997 117.243 234.764 115.557 234.048C113.871 233.333 113.207 231.698 113.003 231.8C112.9 231.852 112.9 232.311 113.207 232.976C113.513 233.64 114.229 234.457 115.251 234.917C116.323 235.326 117.345 235.224 117.958 234.968C118.622 234.713 118.878 234.355 118.827 234.253Z" fill="#263238"/>
<path d="M209.49 373.931L222.059 390.688C222.059 390.688 243.363 383.587 245.969 386.448L214.344 411.993L193.652 386.652L209.49 373.931Z" fill="#263238"/>
<path d="M211.212 397.228C210.752 397.892 210.854 398.914 211.518 399.425C212.183 399.936 213.204 399.834 213.715 399.17C214.175 398.506 214.073 397.279 213.358 396.82C212.693 396.411 211.467 396.615 211.161 397.382" fill="#E0E0E0"/>
<path d="M214.356 411.997L212.363 409.34L243.426 385.839C243.426 385.839 245.368 385.328 245.981 386.452L214.356 411.997Z" fill="#455A64"/>
<path d="M222.523 390.127C222.625 390.28 221.91 390.996 221.552 392.12C221.195 393.193 221.348 394.214 221.144 394.265C220.99 394.317 220.428 393.193 220.888 391.864C221.348 390.536 222.421 389.974 222.523 390.127Z" fill="white"/>
<path d="M226.916 388.848C227.07 388.951 226.61 389.768 226.61 390.841C226.559 391.914 227.019 392.731 226.865 392.834C226.712 392.987 225.895 392.169 225.895 390.841C225.895 389.462 226.763 388.695 226.916 388.848Z" fill="white"/>
<path d="M232.036 391.302C231.933 391.455 231.116 390.842 230.809 389.667C230.503 388.492 230.963 387.573 231.167 387.675C231.32 387.726 231.218 388.543 231.474 389.514C231.729 390.485 232.189 391.149 232.036 391.302Z" fill="white"/>
<path d="M219.249 386.651C219.3 386.804 218.38 387.162 217.563 387.928C216.745 388.695 216.285 389.512 216.081 389.461C215.928 389.41 216.132 388.337 217.103 387.417C218.074 386.549 219.198 386.447 219.249 386.651Z" fill="white"/>
<path d="M181.346 431.152L180.528 452.099C180.528 452.099 201.578 459.916 201.782 463.799L161.114 463.748L161.012 431.05L181.346 431.152Z" fill="#263238"/>
<path d="M167.905 450.316C167.138 450.52 166.576 451.389 166.781 452.206C166.934 452.973 167.853 453.535 168.62 453.381C169.437 453.177 170.101 452.104 169.846 451.338C169.591 450.571 168.467 449.958 167.751 450.367" fill="#E0E0E0"/>
<path d="M161.031 463.75L161.185 460.429L200.116 461.757C200.116 461.757 201.904 462.575 201.699 463.801L161.031 463.75Z" fill="#455A64"/>
<path d="M181.124 451.899C181.124 452.103 180.153 452.154 179.131 452.818C178.16 453.431 177.649 454.3 177.496 454.198C177.292 454.147 177.598 452.972 178.773 452.205C180 451.49 181.175 451.694 181.124 451.899Z" fill="white"/>
<path d="M185.431 453.686C185.482 453.839 184.614 454.196 183.899 455.014C183.234 455.831 183.03 456.751 182.826 456.751C182.672 456.802 182.519 455.627 183.388 454.605C184.256 453.532 185.431 453.481 185.431 453.686Z" fill="white"/>
<path d="M187.877 458.793C187.672 458.793 187.417 457.822 187.928 456.749C188.439 455.625 189.358 455.217 189.461 455.37C189.563 455.523 188.95 456.136 188.541 457.005C188.132 457.924 188.081 458.742 187.877 458.793Z" fill="white"/>
<path d="M180.811 447.091C180.76 447.296 179.841 446.989 178.717 447.091C177.593 447.142 176.724 447.5 176.622 447.347C176.52 447.193 177.337 446.427 178.665 446.376C179.994 446.325 180.913 446.938 180.811 447.091Z" fill="white"/>
<path d="M98.6468 339.292C99.1577 339.088 117.704 331.015 132.877 324.731C142.993 320.542 155.613 318.345 155.613 318.345C155.613 318.345 171.042 309.353 176.917 317.527C182.793 325.702 224.432 382.668 224.125 383.536C223.819 384.456 203.944 402.082 203.944 402.082C203.944 402.082 161.028 347.518 160.16 347.773C159.291 348.08 139.468 363.611 139.468 363.611C139.468 363.611 133.491 369.742 129.097 370.355C124.703 370.917 99.0044 368.873 99.0044 368.873L89.2461 342.511L98.6468 339.292Z" fill="#263238"/>
<path d="M120.516 362.283C121.435 362.896 131.194 369.742 131.194 369.742L153.316 374.851L157.812 447.451L184.226 446.48C184.226 446.48 184.277 394.164 184.277 381.902C184.277 369.64 183.97 358.298 180.292 354.313C176.613 350.328 160.162 347.773 160.162 347.773L120.516 362.283Z" fill="#263238"/>
<path d="M184.222 379.092C184.222 379.058 184.205 378.768 184.171 378.223C184.171 377.61 184.171 376.793 184.171 375.771C184.12 373.625 184.069 370.509 183.813 366.677C183.66 364.787 183.456 362.692 183.098 360.495C182.996 359.95 182.894 359.388 182.792 358.809C182.638 358.298 182.536 357.685 182.332 357.123C181.974 355.999 181.514 354.926 180.595 354.109C178.704 352.525 176.201 351.503 173.646 350.635C171.041 349.766 168.282 349 165.421 348.387C163.939 348.029 162.458 347.774 161.078 347.518L161.283 347.467C152.904 354.007 145.496 359.78 140.08 364.02C137.423 366.064 135.277 367.699 133.745 368.925C133.029 369.47 132.45 369.896 132.008 370.202C131.599 370.509 131.395 370.645 131.395 370.611C131.395 370.611 131.582 370.441 131.957 370.1C132.365 369.759 132.927 369.317 133.643 368.772C135.124 367.546 137.27 365.808 139.876 363.714C145.24 359.473 152.648 353.598 160.976 347.007L161.027 346.956H161.18C162.56 347.212 164.041 347.518 165.574 347.825C168.435 348.489 171.194 349.204 173.8 350.124C176.405 351.043 178.909 352.014 180.952 353.7C181.923 354.62 182.434 355.846 182.843 357.021C182.996 357.583 183.098 358.145 183.251 358.707C183.354 359.286 183.456 359.865 183.558 360.444C183.916 362.692 184.069 364.787 184.222 366.677C184.427 370.509 184.427 373.625 184.375 375.771C184.341 376.827 184.324 377.644 184.324 378.223C184.29 378.768 184.256 379.058 184.222 379.092Z" fill="#455A64"/>
<path d="M99.059 252.489L100.643 244.314L118.473 254.328L122.612 248.964L123.02 250.65L140.749 280.844L152.04 317.374L103.606 337.146L98.3438 307.36L99.059 252.489Z" fill="#FAFAFA"/>
<path d="M136.4 313.338C136.366 313.338 136.315 313.151 136.247 312.776C136.179 312.299 136.094 311.72 135.991 311.039C135.736 309.557 135.429 307.36 134.918 304.704C133.948 299.39 132.364 292.033 129.912 284.165C127.459 276.246 124.7 269.298 122.452 264.342C121.379 261.89 120.46 259.897 119.796 258.518C119.489 257.871 119.234 257.343 119.029 256.934C118.859 256.593 118.791 256.406 118.825 256.372C118.825 256.372 118.927 256.542 119.131 256.883C119.336 257.292 119.608 257.803 119.949 258.416C120.664 259.744 121.686 261.737 122.81 264.189C125.109 269.094 128.021 276.042 130.474 284.012C132.875 291.931 134.459 299.288 135.327 304.653C135.736 307.309 136.042 309.506 136.196 310.988C136.264 311.703 136.315 312.282 136.349 312.725C136.383 313.134 136.4 313.338 136.4 313.338Z" fill="#263238"/>
<path d="M125.424 256.117C125.424 256.117 125.219 256.423 124.81 256.985C124.3 257.598 123.686 258.348 122.971 259.233L122.818 259.386L122.716 259.284C121.439 258.16 119.957 256.832 118.22 255.299L118.68 255.197C118.169 256.934 117.607 258.876 117.045 260.868L116.943 261.175L116.636 261.072C116.227 260.868 115.802 260.647 115.359 260.408C111.067 258.314 107.235 256.372 104.425 254.942C103.131 254.26 102.041 253.681 101.156 253.205C100.389 252.796 99.9805 252.54 99.9805 252.489C100.032 252.489 100.44 252.643 101.258 253C102.143 253.409 103.267 253.937 104.63 254.584C107.44 255.912 111.323 257.803 115.614 259.897C116.057 260.136 116.483 260.357 116.891 260.562L116.483 260.715C117.096 258.722 117.658 256.832 118.169 255.044L118.271 254.686L118.577 254.942C120.263 256.474 121.694 257.854 122.92 258.978L122.665 259.029C123.448 258.143 124.112 257.411 124.657 256.832C125.117 256.321 125.372 256.066 125.424 256.117Z" fill="#263238"/>
<g opacity="0.3">
<path d="M99.0117 368.873L103.61 369.231L110.303 334.285C110.303 334.285 102.997 338.73 102.844 339.292C102.639 339.854 99.0117 368.873 99.0117 368.873Z" fill="black"/>
</g>
<path d="M99.9817 247.687L97.1717 252.898L81.8956 261.123L86.9025 317.63C86.9025 317.63 77.1953 345.218 77.1953 357.378C77.1953 369.589 79.9031 375.464 83.0707 377.048C86.2383 378.632 98.449 372.756 98.449 372.756C98.449 372.756 99.7773 365.552 106.828 349.255C113.929 332.957 121.491 315.126 121.491 315.126C121.491 315.126 123.739 306.338 118.579 290.296C113.367 274.254 99.9817 247.687 99.9817 247.687Z" fill="#455A64"/>
<path d="M171.802 272.619C171.802 272.619 171.444 264.087 171.904 262.656C171.904 262.656 171.904 262.639 171.904 262.605C172.619 260.51 175.071 258.262 177.268 257.905C178.443 257.649 179.363 257.751 179.772 258.109C180.18 258.518 180.742 261.736 180.742 261.736L192.136 259.591C192.136 259.591 185.392 270.115 183.501 272.925C181.611 275.735 179.67 277.574 179.67 277.574L167.101 307.514L161.992 290.449L171.802 272.619Z" fill="#FFBF9D"/>
<path d="M196.732 241.761C193.922 247.176 184.368 265.722 181.609 271.035C181.2 271.802 180.229 272.159 179.412 271.802C178.543 271.393 178.186 270.32 178.594 269.452L193.666 240.177C194.126 239.308 195.199 238.951 196.016 239.41C196.834 239.87 197.191 240.892 196.732 241.761Z" fill="#263238"/>
<path d="M192.907 249.526C193.162 249.577 194.286 249.271 194.44 250.548C194.593 251.825 194.388 256.27 193.775 256.526C193.111 256.832 192.14 257.292 192.14 257.292C192.14 257.292 192.754 260.051 192.089 261.022C191.425 261.992 190.199 262.657 190.199 262.657C190.199 262.657 190.148 264.956 189.433 265.824C188.768 266.744 187.134 268.225 187.134 268.225C187.134 268.225 186.725 271.904 184.988 272.619C183.251 273.283 182.893 273.845 182.893 273.845L182.331 271.597C182.331 271.597 177.682 268.379 176.711 267.817C175.791 267.204 175.332 265.875 176.251 265.313C177.171 264.7 183.251 267.817 183.251 267.817L185.448 265.569L184.119 263.065C184.119 263.065 181.463 260.153 181.514 259.54C181.565 258.927 182.74 257.905 183.762 258.007C184.834 258.11 187.491 260.46 187.491 260.46C187.696 260.971 188.411 261.022 188.666 260.511L188.82 260.204C188.82 260.204 187.9 257.343 187.389 255.197C187.287 254.635 187.44 253.614 188.002 253.409C189.126 252.898 190.046 252.847 190.659 253.92L192.907 249.526Z" fill="#FFBF9D"/>
<path d="M174.77 261.788C174.77 261.839 175.28 261.839 176.098 261.839L175.945 261.737C176.098 262.299 176.2 263.014 176.711 263.78C176.915 264.138 177.324 264.496 177.784 264.7C178.244 264.904 178.857 264.955 179.368 264.649C179.827 264.393 180.083 263.934 180.236 263.525C180.389 263.116 180.441 262.707 180.441 262.35C180.543 261.584 180.543 260.919 180.441 260.357C180.287 259.182 180.032 258.518 179.93 258.569C179.879 258.569 180.032 259.284 180.083 260.357C180.083 260.919 180.083 261.584 179.981 262.299C179.879 262.963 179.725 263.883 179.112 264.189C178.806 264.393 178.346 264.393 177.988 264.24C177.58 264.087 177.273 263.831 177.069 263.525C176.609 262.861 176.456 262.197 176.251 261.635L176.2 261.532H176.098C175.229 261.635 174.77 261.686 174.77 261.788Z" fill="#FF9A6C"/>
<path d="M182.331 271.597C182.382 271.546 181.616 270.933 180.339 270.013C179.623 269.536 178.857 269.008 178.04 268.429C177.631 268.123 177.188 267.816 176.711 267.51C176.354 267.203 175.945 266.692 175.894 266.232C175.843 265.773 176.302 265.466 176.762 265.517C177.273 265.568 177.835 265.721 178.295 265.875C179.266 266.181 180.134 266.539 180.85 266.845C182.331 267.459 183.2 267.867 183.251 267.816C183.251 267.765 182.433 267.203 181.003 266.539C180.288 266.181 179.47 265.773 178.448 265.415C177.937 265.211 177.426 265.057 176.813 265.006C176.507 264.955 176.098 265.057 175.843 265.262C175.536 265.466 175.332 265.926 175.383 266.283C175.485 266.999 175.945 267.51 176.405 267.918C176.881 268.225 177.341 268.531 177.784 268.838C178.636 269.349 179.419 269.843 180.134 270.32C181.463 271.188 182.28 271.648 182.331 271.597Z" fill="#FF9A6C"/>
<path d="M189.54 263.677C189.693 263.626 189.591 262.707 188.978 261.736C188.365 260.765 187.548 260.254 187.496 260.408C187.394 260.51 187.956 261.123 188.518 261.992C189.08 262.911 189.387 263.677 189.54 263.677Z" fill="#FF9A6C"/>
<path d="M190.254 253.409C190.152 253.511 190.56 254.43 191.174 255.503C191.787 256.576 192.093 257.496 192.246 257.445C192.4 257.445 192.246 256.372 191.633 255.248C191.02 254.124 190.407 253.358 190.254 253.409Z" fill="#FF9A6C"/>
<path d="M167.37 279.823C166.961 280.487 160.217 292.187 160.217 292.187C160.217 292.187 144.788 256.986 139.474 256.424C133.957 255.811 138.197 271.649 138.197 271.649L151.481 312.061C151.481 312.061 160.779 314.973 165.939 311.55C171.15 308.178 182.85 284.83 182.85 284.83L167.37 279.823Z" fill="#455A64"/>
<path d="M123.023 250.395C123.023 250.395 135.796 275.327 139.475 288.559C141.876 297.245 145.248 320.695 145.248 320.695L155.772 318.345L146.781 286.924L139.475 256.423L128.081 254.175L123.023 250.395Z" fill="#455A64"/>
<path d="M119.079 310.222C119.079 310.222 118.977 310.035 118.773 309.66C118.534 309.251 118.245 308.723 117.904 308.076C117.189 306.646 116.167 304.704 114.89 302.252C112.386 297.245 108.963 290.45 105.131 282.888C103.241 279.108 101.402 275.531 99.869 272.159C98.3363 268.787 97.2123 265.569 96.7525 262.708C96.2927 259.847 96.3438 257.445 96.5992 255.862C96.7014 255.044 96.8036 254.431 96.9569 254.022C97.059 253.614 97.1101 253.409 97.1101 253.409C97.1612 253.409 96.9058 254.278 96.7525 255.862C96.5992 257.445 96.5481 259.795 97.059 262.605C97.5699 265.415 98.6939 268.583 100.227 271.904C101.81 275.225 103.65 278.801 105.54 282.633C109.321 290.194 112.693 297.041 115.196 302.047C116.371 304.5 117.393 306.543 118.057 307.974C118.398 308.655 118.653 309.2 118.824 309.609C118.994 309.983 119.079 310.188 119.079 310.222Z" fill="#263238"/>
<path d="M143.556 264.291C143.556 264.257 143.624 264.41 143.76 264.751C143.896 265.159 144.067 265.653 144.271 266.232C144.731 267.509 145.293 269.349 145.957 271.699C147.234 276.348 148.665 282.888 149.84 290.143C150.453 293.77 151.015 297.193 151.526 300.361C151.798 301.928 152.054 303.409 152.292 304.806C152.548 306.185 152.905 307.462 153.263 308.637C153.978 310.936 154.642 312.725 155.051 314.053C155.255 314.7 155.409 315.194 155.511 315.535C155.579 315.875 155.613 316.046 155.613 316.046C155.579 316.046 155.511 315.875 155.409 315.535C155.238 315.16 155.051 314.683 154.847 314.104C154.387 312.827 153.621 311.039 152.854 308.74C152.497 307.616 152.088 306.338 151.832 304.908C151.594 303.511 151.321 302.03 151.015 300.463C150.504 297.295 149.942 293.872 149.329 290.245C148.103 282.99 146.774 276.45 145.599 271.801C144.986 269.451 144.424 267.612 144.067 266.283C143.896 265.704 143.76 265.21 143.658 264.802C143.556 264.461 143.522 264.291 143.556 264.291Z" fill="#263238"/>
<path d="M128.078 254.175C128.078 254.141 128.248 254.226 128.589 254.431C128.93 254.601 129.389 254.908 129.968 255.35C131.092 256.219 132.625 257.649 134.362 259.54C135.231 260.459 136.099 261.532 137.019 262.758C137.939 263.985 138.756 265.364 139.625 266.795C141.362 269.707 143.048 273.079 144.325 276.757C145.653 280.436 146.624 284.063 147.033 287.435C147.493 290.807 147.39 293.924 147.084 296.427C146.777 298.982 146.317 301.025 145.909 302.405C145.738 303.086 145.585 303.614 145.449 303.989C145.347 304.329 145.279 304.499 145.245 304.499C145.245 304.499 145.279 304.312 145.347 303.937C145.449 303.529 145.568 303.001 145.704 302.354C146.011 300.974 146.42 298.931 146.675 296.427C146.931 293.873 146.982 290.858 146.522 287.537C146.062 284.217 145.091 280.589 143.814 276.962C142.537 273.283 140.851 269.962 139.216 267.05C138.347 265.62 137.53 264.24 136.661 263.014C135.793 261.839 134.873 260.766 134.056 259.795C132.37 257.854 130.888 256.423 129.815 255.504C128.742 254.584 128.078 254.175 128.078 254.175Z" fill="#263238"/>
<path d="M97.6803 346.189C97.7143 346.189 97.7824 346.394 97.8846 346.803C97.9868 347.16 98.1401 347.773 98.2423 348.489C98.4977 350.021 98.651 352.218 98.3444 354.824V355.079L98.089 355.028C95.1768 354.517 91.7027 354.057 87.922 353.904C84.0391 353.7 80.4627 353.751 77.4484 353.955L76.9375 354.006L77.244 353.598C78.7257 351.656 79.9518 350.021 80.9226 348.744C81.7911 347.62 82.3531 346.956 82.4042 347.007C82.4042 347.007 81.9444 347.722 81.1269 348.897C80.2073 350.226 79.0322 351.861 77.6017 353.853L77.3973 353.495C80.4117 353.24 84.0391 353.138 87.9731 353.342C91.7538 353.546 95.279 354.006 98.1912 354.568L97.8846 354.773C98.2423 352.218 98.1401 350.021 97.9868 348.54C97.8335 347.058 97.6292 346.189 97.6803 346.189Z" fill="#263238"/>
<path d="M81.8936 261.124C81.8936 261.124 72.4419 267.408 71.1646 274.663C69.4786 284.37 72.8506 318.397 73.7191 326.162C74.5877 333.877 79.6967 340.723 85.0101 341.183C90.3236 341.643 132.32 326.367 132.32 326.367L128.131 310.886L97.5784 317.068L94.513 281.254L81.8936 261.124Z" fill="#455A64"/>
<path d="M94.9209 285.852L97.5776 317.068L128.13 310.886L132.319 326.366C132.319 326.366 100.183 339.037 95.6872 339.599C91.1913 340.161 78.9806 342.46 76.375 334.285" fill="#455A64"/>
<path d="M143.913 289.836L157.963 291.369C158.474 291.42 158.882 291.88 158.831 292.442L156.328 315.637C156.277 316.148 155.766 316.506 155.255 316.455L141.205 314.973C140.694 314.922 140.337 314.411 140.388 313.9L142.891 290.705C142.942 290.194 143.402 289.785 143.913 289.836Z" fill="#01B1EC"/>
<path d="M143.912 289.836C143.963 289.887 143.605 289.785 143.197 290.143C142.992 290.347 142.941 290.603 142.941 291.011C142.907 291.42 142.856 291.88 142.788 292.391C142.583 294.485 142.328 297.398 141.97 301.025C141.562 304.652 141.153 308.995 140.642 313.798C140.54 314.309 140.846 314.717 141.459 314.717C142.073 314.785 142.686 314.854 143.299 314.922C144.559 315.058 145.853 315.194 147.182 315.33C149.804 315.603 152.495 315.892 155.254 316.199C155.509 316.25 155.765 316.097 155.918 315.892C155.969 315.79 156.02 315.688 156.02 315.535L156.122 315.024C156.191 314.343 156.259 313.661 156.327 312.98C156.463 311.618 156.599 310.289 156.736 308.995C157.042 306.373 157.332 303.852 157.604 301.434C157.877 299.05 158.132 296.785 158.37 294.639C158.404 294.094 158.456 293.566 158.524 293.055C158.575 292.799 158.575 292.493 158.626 292.289C158.575 292.084 158.524 291.931 158.37 291.778C158.217 291.624 158.064 291.573 157.808 291.573C157.57 291.539 157.332 291.505 157.093 291.471C156.616 291.437 156.156 291.386 155.714 291.318C152.086 290.909 149.174 290.551 147.079 290.296C146.092 290.16 145.308 290.058 144.729 289.989C144.218 289.921 143.946 289.87 143.912 289.836C143.946 289.836 144.235 289.853 144.78 289.887C145.359 289.955 146.143 290.024 147.13 290.092C149.225 290.296 152.137 290.603 155.714 290.96C156.191 290.994 156.667 291.028 157.144 291.062C157.383 291.096 157.621 291.131 157.86 291.165C158.115 291.165 158.422 291.267 158.626 291.471C158.881 291.675 159.035 291.982 159.035 292.289C159.035 292.595 158.983 292.799 158.932 293.106C158.898 293.617 158.847 294.128 158.779 294.639C158.575 296.819 158.336 299.101 158.064 301.485C157.825 303.903 157.57 306.424 157.298 309.046C157.161 310.375 157.008 311.703 156.838 313.031C156.77 313.713 156.701 314.394 156.633 315.075L156.582 315.586C156.582 315.79 156.48 316.046 156.378 316.199C156.122 316.557 155.663 316.812 155.203 316.761C152.444 316.454 149.753 316.148 147.13 315.841C145.802 315.705 144.508 315.569 143.248 315.433C142.635 315.364 142.021 315.296 141.408 315.228C141.102 315.228 140.642 315.075 140.387 314.768C140.131 314.513 140.08 314.053 140.131 313.747C140.693 308.944 141.153 304.601 141.562 300.974C142.021 297.347 142.328 294.434 142.583 292.34C142.652 291.863 142.703 291.42 142.737 291.011C142.788 290.603 142.89 290.245 143.145 290.092C143.605 289.683 143.963 289.887 143.912 289.836Z" fill="#263238"/>
<path d="M153.928 303.938L152.293 303.785L152.6 300.821L154.234 300.975L153.928 303.938Z" fill="white"/>
<path d="M154.393 299.646L152.758 299.442L153.064 296.479L154.75 296.683L154.393 299.646Z" fill="white"/>
<path d="M153.471 308.281L151.836 308.077L152.142 305.113L153.777 305.318L153.471 308.281Z" fill="white"/>
<path d="M153.01 312.521L151.324 312.316L151.631 309.404L153.317 309.558L153.01 312.521Z" fill="white"/>
<path d="M76.3764 334.285C76.3764 334.285 76.4105 334.388 76.4786 334.592C76.5808 334.796 76.717 335.069 76.8873 335.409C77.2449 336.074 77.858 337.095 79.0842 337.964C80.2593 338.884 81.9964 339.599 84.0911 339.905C86.2369 340.263 88.6892 340.263 91.397 339.956C92.7254 339.854 94.1559 339.599 95.6375 339.446C97.0681 339.19 98.5497 338.679 100.082 338.168C103.148 337.146 106.367 335.971 109.841 334.694C116.687 332.191 124.197 329.227 132.218 326.111L132.065 326.417C131.299 323.71 130.532 320.798 129.715 317.885C129.068 315.535 128.438 313.236 127.825 310.988L128.182 311.141C116.942 313.44 106.571 315.535 97.6301 317.323L97.3746 317.374V317.119C96.6083 307.718 95.9441 299.901 95.4843 294.384C95.2799 291.676 95.1266 289.581 95.0245 288.048C94.9904 287.367 94.9563 286.822 94.9223 286.414C94.8882 286.039 94.8882 285.852 94.9223 285.852C94.9223 285.852 94.9393 286.039 94.9734 286.414C95.0415 286.822 95.1096 287.367 95.1777 288.048C95.331 289.53 95.5354 291.676 95.7908 294.384C96.2506 299.85 96.9659 307.667 97.8344 317.068L97.579 316.864C106.469 315.024 116.84 312.93 128.029 310.63L128.284 310.579L128.387 310.835C129 313.083 129.63 315.382 130.277 317.732C131.043 320.695 131.81 323.556 132.576 326.315L132.627 326.52L132.423 326.622C124.402 329.738 116.84 332.651 109.994 335.154C106.571 336.431 103.301 337.606 100.236 338.577C98.6519 339.088 97.2214 339.548 95.6886 339.803C94.207 340.008 92.7765 340.212 91.397 340.314C88.6892 340.57 86.1858 340.57 84.04 340.212C81.8942 339.854 80.106 339.139 78.9309 338.168C77.7558 337.198 77.0917 336.176 76.7851 335.46C76.6489 335.086 76.5297 334.796 76.4275 334.592C76.3594 334.422 76.3423 334.319 76.3764 334.285Z" fill="#263238"/>
<path d="M76.2734 267.408C76.2734 267.357 77.2953 267.255 78.9812 267.459C80.6672 267.612 82.9663 268.277 85.2143 269.605C87.4623 270.933 89.0972 272.67 90.0679 274.05C91.0386 275.429 91.4473 276.4 91.3962 276.4C91.2941 276.451 90.7832 275.531 89.7613 274.254C88.7395 272.977 87.1046 271.393 84.9077 270.065C82.7619 268.788 80.565 268.123 78.9301 267.817C77.2952 267.51 76.2734 267.51 76.2734 267.408Z" fill="#263238"/>
<path d="M128.797 312.266C128.797 312.266 138.555 302.763 140.292 300.821C142.029 298.88 152.554 298.369 154.087 299.084C155.671 299.8 155.466 301.945 154.495 302.252C153.525 302.61 147.854 302.201 146.117 302.916C144.38 303.58 150.613 303.376 153.116 305.266C155.671 307.157 154.24 308.383 153.269 308.485C153.269 308.485 154.649 309.66 153.576 310.835C152.503 311.959 151.277 311.448 151.277 311.448C151.277 311.448 153.014 312.164 152.35 313.594C151.685 315.025 149.284 314.412 149.284 314.412C149.284 314.412 145.503 313.032 144.89 313.288C144.277 313.492 142.387 316.608 140.292 318.346C137.636 320.542 134.315 319.98 133.497 319.878L131.351 321.769C130.687 319.521 128.797 312.266 128.797 312.266Z" fill="#FFBF9D"/>
<path d="M148.72 293.413L148.464 295.712L145.961 295.456L146.216 293.157L148.72 293.413Z" fill="white"/>
<path d="M94.8189 394.266H19.5625V337.504H89.6587C92.3154 337.504 94.5123 338.628 94.5123 340.007L94.8189 394.266Z" fill="#01B1EC"/>
<g opacity="0.3">
<path d="M63.296 414.038H19.5625V337.504L63.0406 337.657L63.296 414.038Z" fill="black"/>
</g>
<path d="M86.8482 337.606C86.8482 337.759 72.5428 337.861 54.8655 337.861C37.2393 337.861 22.8828 337.759 22.8828 337.606C22.8828 337.453 37.2393 337.351 54.8655 337.351C72.5428 337.351 86.8482 337.453 86.8482 337.606Z" fill="#263238"/>
<path d="M94.4589 414.292C94.3056 414.292 94.1523 400.242 94.1523 382.974C94.1523 365.654 94.3056 351.655 94.4589 351.655C94.6122 351.655 94.7143 365.654 94.7143 382.974C94.7143 400.242 94.6122 414.292 94.4589 414.292Z" fill="#263238"/>
<path d="M156.228 393.959C156.228 394.112 142.433 394.214 125.471 394.214C108.509 394.214 94.7148 394.112 94.7148 393.959C94.7148 393.805 108.509 393.703 125.471 393.703C142.433 393.703 156.228 393.805 156.228 393.959Z" fill="#263238"/>
</svg>
